<svg width="640" height="640" viewBox="0 0 640 640" xmlns="http://www.w3.org/2000/svg">
<defs>
  <clipPath id="sc">
    <path d="M320 60 L480 124 L480 330 Q480 460 320 510 Q160 460 160 330 L160 124 Z"/>
  </clipPath>
</defs>
<rect width="640" height="640" rx="90" fill="#0d1f13"/>
<path d="M320 60 L480 124 L480 330 Q480 460 320 510 Q160 460 160 330 L160 124 Z" fill="#1a7a4a"/>
<!-- Sol -->
<circle cx="320" cy="200" r="54" fill="#f59e0b" clip-path="url(#sc)"/>
<line x1="320" y1="130" x2="320" y2="112" stroke="#f59e0b" stroke-width="10" stroke-linecap="round"/>
<line x1="320" y1="270" x2="320" y2="288" stroke="#f59e0b" stroke-width="10" stroke-linecap="round"/>
<line x1="250" y1="200" x2="232" y2="200" stroke="#f59e0b" stroke-width="10" stroke-linecap="round"/>
<line x1="390" y1="200" x2="408" y2="200" stroke="#f59e0b" stroke-width="10" stroke-linecap="round"/>
<line x1="271" y1="151" x2="258" y2="138" stroke="#f59e0b" stroke-width="8" stroke-linecap="round"/>
<line x1="369" y1="249" x2="382" y2="262" stroke="#f59e0b" stroke-width="8" stroke-linecap="round"/>
<line x1="369" y1="151" x2="382" y2="138" stroke="#f59e0b" stroke-width="8" stroke-linecap="round"/>
<line x1="271" y1="249" x2="258" y2="262" stroke="#f59e0b" stroke-width="8" stroke-linecap="round"/>
<circle cx="320" cy="200" r="22" fill="#fff" clip-path="url(#sc)"/>
<!-- Cordillera fondo -->
<path d="M160 460 L200 390 L230 412 L268 364 L294 386 L320 344 L346 386 L372 364 L410 412 L440 390 L480 460 Z" fill="#0f3520" clip-path="url(#sc)"/>
<!-- Aconcagua -->
<path d="M160 500 L206 428 L238 448 L280 380 L306 404 L320 354 L334 404 L360 380 L402 448 L434 428 L480 500 Z" fill="#164d2a" clip-path="url(#sc)"/>
<!-- Nieve cima -->
<path d="M306 364 L320 354 L334 364 L328 374 L320 362 L312 374 Z" fill="#e8f4ec" clip-path="url(#sc)"/>
<!-- Mar base -->
<path d="M160 474 Q210 462 260 474 Q300 484 340 472 Q390 460 480 474 L480 512 Q160 520 160 512 Z" fill="#1a6b8a" opacity="0.8" clip-path="url(#sc)"/>
<!-- Río orgánico -->
<path d="M317 392 C312 404 304 414 306 428 C308 440 314 448 311 462 C308 472 304 478 307 486 L333 488 C336 480 332 474 329 464 C326 450 332 442 330 430 C328 416 336 406 323 394 Z" fill="#5ab8d4" opacity="0.75" clip-path="url(#sc)"/>
<path d="M320 396 C317 410 312 422 314 436 C316 448 320 456 318 470 C317 478 316 484 317 488" stroke="#a8dff0" stroke-width="2" fill="none" stroke-linecap="round" opacity="0.8" clip-path="url(#sc)"/>
<!-- Texto -->
<text x="320" y="574" text-anchor="middle" font-family="Arial, sans-serif" font-size="58" font-weight="700" fill="#ffffff">Eco<tspan fill="#f59e0b">Guard</tspan></text>
<text x="320" y="614" text-anchor="middle" font-family="Arial, sans-serif" font-size="20" fill="#ffffff" opacity="0.55" letter-spacing="4">VALPARAÍSO · CHILE</text>
</svg>
